<svg width="39" height="18" viewBox="0 0 39 18" fill="none" xmlns="http://www.w3.org/2000/svg">
<path d="M6.1681 5.52C9.6481 5.52 11.9041 7.752 11.9041 11.184C11.9041 14.736 9.2401 17.424 5.6881 17.424C2.2321 17.424 0.000103548 15.216 0.000103548 11.808C0.000103548 7.68 3.0961 5.52 6.1681 5.52ZM6.2161 16.92C9.5041 16.92 9.7681 13.416 9.7681 12.336C9.7681 10.368 8.7121 6.024 5.5201 6.024C3.3841 6.024 2.1361 7.704 2.1361 10.536C2.1361 12.6 3.1201 16.92 6.2161 16.92ZM27.0864 7.128C27.3504 7.752 27.3024 8.544 26.9424 9.504C26.5824 10.464 25.8864 11.712 25.0704 12.936C24.8064 13.344 24.5424 13.728 24.2544 14.088C24.2544 14.088 24.2544 14.112 24.2304 14.112C22.8144 16.008 21.2064 17.256 19.7904 17.088C17.6544 16.824 16.7184 13.248 19.8624 12.288C19.8624 12.288 20.0064 12.24 20.0544 12.264C20.0784 12.264 20.0304 12.336 20.0304 12.336C19.7664 12.792 19.6224 13.344 20.2944 13.728C21.2304 14.256 23.5584 14.04 24.4224 12.864C25.7904 10.944 24.9024 9.432 23.6304 9.384C23.0064 9.36 22.2624 9.504 21.4704 9.864C20.6784 10.2 20.0064 10.728 19.4544 11.376C18.3504 12.576 15.8784 15.12 15.8784 15.12C12.9744 17.712 10.6944 17.4 11.2704 15.792C11.7504 14.448 12.9504 13.344 13.8384 12.24C15.5424 10.296 17.2464 8.4 18.9024 6.432C19.1664 6.096 19.4064 5.736 19.5744 5.328C19.9584 4.32 19.2384 3.048 18.2064 2.832C17.4144 2.688 16.4544 2.928 15.5424 4.056C15.5424 4.056 15.4224 4.248 15.1824 4.272C14.9664 4.296 15.1104 4.008 15.1104 4.008C18.1824 0.216001 19.9824 9.53674e-07 20.8944 0.384C21.3264 0.552001 21.6624 0.936 21.8304 1.392C22.8864 4.344 19.1664 7.056 17.1744 9.24C14.4624 12.192 14.9904 12.792 14.9904 12.792C15.6864 14.232 18.1104 12.288 19.2144 10.92C19.2624 10.872 19.2864 10.848 19.2864 10.848C23.3184 5.736 25.5744 6.192 25.5744 6.192C26.3184 6.192 26.8224 6.504 27.0864 7.128ZM32.395 6.792C31.723 7.128 31.411 7.728 31.387 8.328C31.315 9.576 32.779 9.984 34.363 10.416C36.379 10.992 38.467 11.568 38.347 13.728C38.203 16.152 35.923 17.568 32.515 17.376L28.723 17.304C28.531 17.352 28.315 17.232 28.243 17.04L27.427 14.664C27.163 13.92 27.043 13.44 27.067 13.272C27.091 13.056 27.283 12.912 27.547 13.008C27.691 13.056 27.811 13.272 27.979 13.56C28.483 14.448 30.187 16.32 32.491 16.488C34.075 16.584 35.323 15.744 35.395 14.568C35.467 13.152 33.955 12.744 32.347 12.336C30.427 11.808 28.411 11.256 28.531 9.024C28.675 6.504 31.459 5.496 34.003 5.64C34.219 5.664 34.411 5.664 34.579 5.688C35.539 5.808 36.235 5.112 36.235 5.112C36.403 5.016 36.643 5.088 36.739 5.28L38.035 7.68C38.443 8.376 38.635 8.808 38.635 8.976C38.659 9.216 38.491 9.384 38.203 9.336C38.059 9.288 37.891 9.12 37.675 8.88C37.051 8.088 34.699 5.88 32.395 6.792Z" fill="black"/>
</svg>
