<svg viewBox="0 0 700 170" xmlns="http://www.w3.org/2000/svg" style="display:block;width:100%">

  <!-- Baseline -->
  <line x1="40" y1="130" x2="668" y2="130" stroke="#1a1a1a" stroke-width="0.5" stroke-opacity="0.2"/>

  <!-- Curve: high sustained plateau — starts high, stays high with minor variation -->
  <path d="M 40,65 C 70,62 110,55 150,52 C 185,50 215,52 250,50 C 280,48 310,56 340,54 C 370,52 400,46 430,44 C 460,42 510,44 550,42 C 590,40 630,38 668,36"
        stroke="#1a1a1a" stroke-width="1.5" fill="none" stroke-linecap="round" stroke-linejoin="round"/>

  <!-- Key dots -->
  <circle cx="250" cy="50" r="2.5" fill="#1a1a1a"/>
  <circle cx="340" cy="54" r="2.5" fill="#1a1a1a"/>
  <circle cx="668" cy="36" r="3" fill="#1a1a1a"/>

  <!-- Annotation: demo debate -->
  <line x1="250" y1="47" x2="250" y2="34" stroke="#1a1a1a" stroke-width="0.5" stroke-opacity="0.35"/>
  <text x="250" y="28" text-anchor="middle" font-family="system-ui, -apple-system, sans-serif" font-size="9.5" fill="#888">Animation vs. interactive demo.</text>

  <!-- Annotation: localisation -->
  <line x1="340" y1="57" x2="340" y2="72" stroke="#1a1a1a" stroke-width="0.5" stroke-opacity="0.35"/>
  <text x="340" y="84" text-anchor="middle" font-family="system-ui, -apple-system, sans-serif" font-size="9.5" fill="#888">Design integrity across markets.</text>

  <!-- Annotation: end -->
  <text x="660" y="28" text-anchor="end" font-family="system-ui, -apple-system, sans-serif" font-size="9.5" fill="#888">Sustained excellence under load.</text>

  <!-- Phase labels -->
  <text x="40"  y="145" text-anchor="start" font-family="system-ui, -apple-system, sans-serif" font-size="8" fill="#777">Onboarding</text>
  <text x="430" y="145" text-anchor="middle" font-family="system-ui, -apple-system, sans-serif" font-size="8" fill="#777">A/B testing</text>
  <text x="668" y="145" text-anchor="middle" font-family="system-ui, -apple-system, sans-serif" font-size="8" fill="#777">Launch</text>

  <!-- Y caption -->
  <text x="40" y="162" font-family="system-ui, -apple-system, sans-serif" font-size="7.5" fill="#999" letter-spacing="0.08em">TEAM PRESSURE / STAKES →</text>

</svg>
