<svg width="75" height="74" viewBox="0 0 75 74" fill="none" xmlns="http://www.w3.org/2000/svg">
<path d="M40.8026 0.772461C41.934 0.330076 43.268 0.442583 44.285 1L44.493 1.11133C45.4457 1.65455 46.1229 2.51857 46.5399 3.45898L46.6249 3.66113L46.6337 3.68262L46.6405 3.70605C47.1675 5.49808 47.17 7.50622 46.5321 9.31348L46.5292 9.32324L46.5253 9.33203C46.327 9.82768 46.1406 10.3878 45.8329 11.209C45.3317 12.6624 44.4118 15.3025 43.703 17.6777C43.3481 18.8669 43.0502 19.9761 42.8846 20.8311C42.8275 21.1263 42.7882 21.3829 42.7665 21.5967C45.9553 19.3137 49.4472 15.3493 53.2909 11.1113L53.2938 11.1074C55.6841 8.51797 58.101 5.79924 60.5155 3.48535C61.8836 2.02163 63.667 1.07889 65.6552 0.758789V0.757812C68.1727 0.210695 70.6874 1.41331 71.8934 3.49609L71.8944 3.49805C73.1237 5.63626 73.3386 8.59164 72.9052 11.4346C72.4713 14.2799 71.3728 17.1101 69.8622 19.043L69.8632 19.0439C66.9322 23.0094 63.4181 25.5094 59.119 27.5283C62.4 27.4631 65.2451 27.7249 67.535 28.3125C70.4141 29.0514 72.5193 30.3333 73.4139 32.2344C74.3366 34.1957 73.5992 36.4153 71.8143 38.2002L71.8046 38.21C68.145 41.6662 58.6634 44.3673 46.8241 38.7334C51.4864 47.4069 60.751 51.7621 67.4432 54.3809L67.4725 54.3926L67.5009 54.4082C72.1315 56.9343 73.9211 62.5139 71.7167 67.249L71.7177 67.25C70.8798 69.135 69.459 70.8288 67.5809 71.8145C65.6936 72.805 63.3761 73.0622 60.8016 72.1201V72.1211C51.7088 69.0561 46.4204 60.8862 41.3427 53.1201L41.3378 53.1123L41.3319 53.1045C40.8817 52.3542 40.4321 51.629 39.9823 50.9297C41.6301 61.5873 38.6229 68.1529 34.8563 70.6484L34.8573 70.6494C32.7801 72.1798 29.8323 72.1819 27.7518 70.54L27.4227 70.2627C25.7999 68.814 24.5468 66.3696 24.0907 62.9248C23.6765 59.7961 23.9169 55.82 25.1454 50.9482C23.4371 53.4088 21.9322 56.0415 20.7196 58.8457L20.7137 58.8594C19.1002 62.2882 17.1839 65.5168 14.9647 68.543L14.9637 68.542C13.5893 70.5431 11.494 71.8949 9.21863 72.6201L9.2196 72.6211C8.56348 72.8398 7.80905 72.9473 7.16101 72.9473C5.22107 72.9473 3.45545 72.084 2.45007 70.4316C0.802162 68.2387 0.30915 64.8995 0.562378 61.6328C0.815886 58.3633 1.82583 55.0419 3.32312 52.8027C6.3821 46.8705 10.7989 41.8196 16.2137 37.9307C13.0069 38.4988 10.1816 38.6679 7.86023 38.4316C4.99171 38.1397 2.78589 37.2168 1.65808 35.543L1.54285 35.3779C0.403705 33.6591 0.726627 31.3895 2.26843 29.4365C5.20302 25.5043 13.5215 21.4841 25.4032 24.5215C22.0152 21.0348 17.4606 20.1452 12.4784 19.2393C10.0501 18.8345 7.72786 18.229 5.41589 17.5254V17.5244C3.21918 16.8646 1.58143 14.8927 1.36316 12.4922L1.36218 12.4844V12.4766C1.24849 10.5438 2.3393 8.87015 4.16687 7.62109C5.99178 6.37402 8.60223 5.50634 11.704 5.15039L11.7079 5.14941C16.4996 4.63966 21.2909 5.45561 25.6718 7.49316L25.6737 7.49414C28.45 8.79564 30.7816 10.8982 32.4344 13.4893C33.0273 6.26829 37.2111 1.69474 40.8026 0.772461ZM22.7606 35.5469C22.7606 35.9085 22.5773 36.2977 22.1844 36.4941L22.1747 36.499C15.2887 39.7453 9.45841 45.5609 4.89734 53.6914L4.88855 53.707L4.87878 53.7217C3.38889 55.9806 2.53153 59.0648 2.36023 62.0381C2.18849 65.019 2.71113 67.7828 3.86511 69.4521C5.03243 70.9706 6.99688 71.5011 8.68835 70.8779L8.703 70.8721L8.71765 70.8682C10.6101 70.3004 12.3173 69.067 13.453 67.458L13.4579 67.4512C15.639 64.4769 17.521 61.3064 19.0057 58.04L19.0096 58.0312L19.0135 58.0234C21.1092 53.8322 23.3403 49.4627 26.702 45.999L26.7616 45.9375L26.8378 45.8994C26.9938 45.8214 27.17 45.7715 27.3485 45.7715C27.5057 45.7715 27.6977 45.8127 27.8593 45.9443C28.015 46.0393 28.154 46.1774 28.2333 46.3623C28.322 46.5694 28.3217 46.8007 28.2313 47.0156C26.0986 53.4174 25.5173 58.3678 25.8466 62.002C26.156 65.4164 27.2633 67.6271 28.5985 68.8262L28.869 69.0527L28.8768 69.0586C30.2894 70.2061 32.3414 70.2197 33.8729 69.1387L33.8817 69.1318C35.737 67.8792 37.3621 65.318 38.121 61.5234C38.878 57.738 38.7623 52.7665 37.1776 46.7744L37.161 46.7119V46.6465C37.1611 46.4724 37.2034 46.27 37.3202 46.0947C37.4274 45.934 37.6013 45.7975 37.83 45.7588C37.967 45.7034 38.1365 45.6634 38.3192 45.6895C38.558 45.7236 38.7549 45.8617 38.8778 46.0703C40.2815 47.9769 41.5838 49.9795 42.8807 52.0742L43.8231 53.5234C48.5428 60.7558 53.4463 67.7225 61.4218 70.4736H61.4227C63.4942 71.1797 65.3003 70.9392 66.7509 70.168C68.2122 69.3909 69.3411 68.059 70.0028 66.5469L70.0067 66.5371L70.0116 66.5273C71.8911 62.6742 70.3915 58.078 66.7469 56.0996C59.7387 53.3933 49.5971 48.5374 44.8134 38.7695C44.6763 38.4955 44.4709 38.1149 44.3671 37.7441C44.2594 37.3595 44.2261 36.865 44.5702 36.4346L44.7206 36.2471H44.8671C44.9371 36.2146 45.0387 36.173 45.1727 36.1523C45.4339 36.1122 45.7399 36.1567 46.118 36.3213L46.285 36.3994L46.2909 36.4023C58.1659 42.5377 67.3141 39.9921 70.5126 36.8877L70.5194 36.8809C71.9355 35.5591 72.2675 34.0997 71.7206 33.084L71.7118 33.0674L71.704 33.0498C71.1979 31.9114 69.6866 30.719 66.7177 29.9951C63.7703 29.2766 59.4848 29.0473 53.62 29.7432L53.5907 29.7471H53.5614C53.1999 29.7471 52.8106 29.5634 52.6141 29.1709L52.5614 29.0645V28.9473C52.5614 28.5856 52.7448 28.1964 53.1376 28L53.163 27.9863L53.1903 27.9766C59.751 25.5908 64.5461 23.0339 68.4608 17.9473C69.7015 16.2764 70.6771 13.7577 71.08 11.2061C71.4847 8.64208 71.2945 6.15422 70.329 4.49902V4.49805C69.4347 2.97998 67.6476 2.18163 65.9637 2.53613L65.9559 2.53809L65.9481 2.53906C64.3538 2.82042 62.9523 3.56811 61.828 4.78613L61.8182 4.79688L61.8075 4.80762C59.4231 7.09268 57.0393 9.77242 54.6307 12.3818C50.7456 16.6655 47.0067 20.8134 43.6552 23.251C43.3114 23.5317 42.9632 23.701 42.6102 23.7539C42.2443 23.8088 41.9159 23.7329 41.6376 23.5938L41.5878 23.5693L41.5448 23.5342C41.0901 23.1621 40.955 22.551 40.955 21.8984C40.955 21.2267 41.0975 20.3705 41.3505 19.3398C41.8575 17.2736 42.842 14.3743 44.1903 10.5791C44.2935 10.2228 44.4193 9.86752 44.5262 9.55859C44.6405 9.22841 44.7281 8.96008 44.7704 8.74902L44.7802 8.7041L44.7968 8.66113C45.347 7.28553 45.3524 5.71522 44.8925 4.32227C44.6345 3.63466 44.1189 3.0351 43.4374 2.69434L43.4247 2.6875L43.413 2.68066C42.8387 2.3526 41.9938 2.26837 41.3368 2.51465L41.3124 2.52344L41.288 2.53027C37.8247 3.44192 32.9139 9.19753 34.4403 18.9727C34.5393 19.1822 34.4964 19.3979 34.4608 19.5049C34.4085 19.6618 34.313 19.8021 34.2147 19.9004C34.0497 20.0654 33.8353 20.1221 33.661 20.1221C33.5411 20.1221 33.403 20.0938 33.2743 20.0234C33.0833 19.9765 32.9387 19.8634 32.8456 19.7471C32.7532 19.6315 32.6873 19.4818 32.6688 19.3281L32.6678 19.3291C31.7118 13.5929 25.5538 5.57221 11.9149 7.04395H11.9139C9.60653 7.28941 7.35593 7.90145 5.72351 8.84277C4.18729 9.72862 3.29258 10.842 3.25574 12.1523L3.26062 12.417V12.4189C3.34242 13.8913 4.34857 15.1546 5.72253 15.6738L6.00183 15.7676L6.01257 15.7705C7.92309 16.3784 9.90581 16.9089 11.8944 17.2969L12.7469 17.4541L12.7538 17.4551V17.4561C18.3442 18.5163 24.3551 19.601 28.3915 25.1201L28.7762 25.668L28.7938 25.6943L28.8085 25.7236C28.8829 25.8725 28.951 26.0787 28.9188 26.3047C28.8857 26.5368 28.7534 26.729 28.5546 26.8525C28.4626 26.9306 28.3474 27.0032 28.2196 27.0459C28.1048 27.0842 27.8648 27.1309 27.6415 27.001C15.0158 22.8814 6.39447 26.9728 3.76355 30.543L3.75671 30.5527L3.7489 30.5625C2.54095 32.0494 2.43748 33.5012 3.17078 34.5615H3.17175C3.84285 35.5259 5.50268 36.4275 8.53503 36.6484C11.5444 36.8677 15.8076 36.4068 21.5233 34.7666L21.5907 34.7471H21.7606C22.0171 34.7471 22.2226 34.8692 22.3387 34.9521C22.4642 35.0417 22.5661 35.1453 22.6141 35.1934L22.7606 35.3398V35.5469Z" fill="black" stroke="black"/>
</svg>
