<svg width="387" height="172" viewBox="0 0 387 172" fill="none" xmlns="http://www.w3.org/2000/svg">
<path d="M61.68 52.7098C96.48 52.7098 119.04 75.0298 119.04 109.35C119.04 144.87 92.4 171.75 56.88 171.75C22.32 171.75 0 149.67 0 115.59C0 74.3098 30.96 52.7098 61.68 52.7098ZM62.16 166.71C95.04 166.71 97.68 131.67 97.68 120.87C97.68 101.19 87.12 57.7498 55.2 57.7498C33.84 57.7498 21.36 74.5498 21.36 102.87C21.36 123.51 31.2 166.71 62.16 166.71Z" fill="#FFCF69"/>
<path d="M270.862 68.7898C273.502 75.0298 273.023 82.9498 269.423 92.5498C265.823 102.15 258.862 114.63 250.702 126.87C248.063 130.95 245.423 134.79 242.542 138.39C242.542 138.39 242.543 138.63 242.303 138.63C228.143 157.59 212.063 170.07 197.903 168.39C176.543 165.75 167.182 129.99 198.622 120.39C198.622 120.39 200.063 119.91 200.543 120.15C200.783 120.15 200.303 120.87 200.303 120.87C197.663 125.43 196.223 130.95 202.943 134.79C212.303 140.07 235.583 137.91 244.223 126.15C257.903 106.95 249.023 91.8298 236.303 91.3498C230.063 91.1098 222.622 92.5498 214.702 96.1498C206.783 99.5098 200.063 104.79 194.543 111.27C183.503 123.27 158.783 148.71 158.783 148.71C129.743 174.63 106.942 171.51 112.702 155.43C117.502 141.99 129.503 130.95 138.383 119.91C155.423 100.47 172.463 81.5098 189.023 61.8298C191.663 58.4698 194.063 54.8698 195.743 50.7898C199.583 40.7098 192.383 27.9898 182.062 25.8298C174.143 24.3898 164.543 26.7898 155.423 38.0698C155.423 38.0698 154.222 39.9898 151.822 40.2298C149.662 40.4698 151.103 37.5898 151.103 37.5898C181.823 -0.3302 199.823 -2.4902 208.943 1.34979C213.263 3.0298 216.623 6.86979 218.303 11.4298C228.863 40.9498 191.663 68.0698 171.743 89.9098C144.623 119.43 149.902 125.43 149.902 125.43C156.862 139.83 181.103 120.39 192.143 106.71C192.623 106.23 192.863 105.99 192.863 105.99C233.183 54.8698 255.743 59.4298 255.743 59.4298C263.182 59.4298 268.222 62.5498 270.862 68.7898Z" fill="#FFCF69"/>
<path d="M324.083 65.2648C317.677 68.4679 314.279 73.6242 313.888 80.7336C313.732 83.1554 314.201 85.3429 315.294 87.2961C316.466 89.2492 317.794 90.8898 319.279 92.2179C320.841 93.4679 323.185 94.757 326.31 96.0851C329.513 97.3351 332.169 98.2726 334.279 98.8976C336.388 99.5226 339.513 100.421 343.654 101.593C347.404 102.609 350.294 103.429 352.326 104.054C354.435 104.679 357.169 105.616 360.529 106.866C363.888 108.038 366.505 109.171 368.38 110.265C370.255 111.28 372.326 112.648 374.591 114.366C376.935 116.085 378.693 117.882 379.865 119.757C381.037 121.554 381.974 123.741 382.677 126.319C383.458 128.898 383.771 131.671 383.615 134.64C382.912 146.749 377.287 156.124 366.74 162.765C356.193 169.405 342.404 172.218 325.372 171.202L287.404 170.382C286.388 170.616 285.412 170.499 284.474 170.03C283.537 169.562 282.912 168.819 282.599 167.804L274.396 144.132C271.662 136.476 270.412 131.827 270.646 130.187C270.802 129.015 271.31 128.194 272.169 127.726C273.107 127.179 274.24 127.14 275.568 127.609C276.662 127.999 278.107 129.796 279.904 132.999C281.31 135.499 283.302 138.234 285.88 141.202C288.537 144.093 291.74 147.101 295.49 150.226C299.318 153.351 303.849 156.046 309.083 158.312C314.318 160.577 319.63 161.905 325.021 162.296C332.912 162.765 339.591 161.202 345.06 157.609C350.607 153.937 353.576 149.132 353.966 143.194C354.122 140.929 353.888 138.859 353.263 136.984C352.638 135.109 351.505 133.429 349.865 131.944C348.302 130.46 346.779 129.21 345.294 128.194C343.81 127.179 341.622 126.163 338.732 125.148C335.841 124.132 333.497 123.351 331.701 122.804C329.904 122.257 327.247 121.515 323.732 120.577C320.841 119.796 318.654 119.21 317.169 118.819C315.763 118.429 313.693 117.804 310.958 116.944C308.302 116.085 306.232 115.343 304.747 114.718C303.341 114.093 301.544 113.234 299.357 112.14C297.247 111.046 295.607 109.991 294.435 108.976C293.263 107.882 291.974 106.593 290.568 105.109C289.162 103.546 288.146 101.944 287.521 100.304C286.896 98.5851 286.349 96.6711 285.88 94.5617C285.49 92.3742 285.372 90.0695 285.529 87.6476C285.841 81.5539 287.677 76.2023 291.037 71.5929C294.396 66.9054 298.693 63.2726 303.927 60.6945C309.162 58.0382 314.865 56.1242 321.037 54.9523C327.208 53.7804 333.576 53.3898 340.138 53.7804C341.544 53.8586 343.497 54.0539 345.997 54.3664V54.2492C348.81 54.5617 351.583 54.2492 354.318 53.3117C357.052 52.2961 359.083 51.2023 360.412 50.0304L362.404 48.3898C364.669 47.4523 366.388 48.0382 367.56 50.1476L380.568 74.1711C384.396 81.0461 386.388 85.382 386.544 87.1789C386.622 88.3507 386.271 89.2882 385.49 89.9914C384.708 90.6945 383.615 90.9289 382.208 90.6945C381.037 90.5382 379.279 89.0148 376.935 86.1242C375.685 84.6398 374.162 83.0382 372.365 81.3195C370.646 79.5226 368.38 77.4914 365.568 75.2257C362.755 72.9601 359.826 71.007 356.779 69.3664C353.732 67.6476 350.333 66.1632 346.583 64.9132C342.833 63.5851 339.122 62.9992 335.451 63.1554C331.857 63.2336 328.068 63.9367 324.083 65.2648Z" fill="#FFCF69"/>
</svg>
